#!OML:ASF F:\VICON\USERDATA\INSTALL\SteveWalk\SteveWalk.ASF
:FULLY-SPECIFIED
:DEGREES
124
root -0.477559 16.1851 -19.21 16.8481 3.42089 -0.648294
lowerback -13.5287 -1.06 5.27823
upperback -5.37674 -2.13985 2.62008
thorax 1.82108 -1.09943 -0.551631
lowerneck -3.57798 0.677914 -0.148962
upperneck 3.32432 1.01918 -2.6451
head 1.65259 0.45013 -0.775092
rclavicle 1.16848e-014 2.38542e-015
rhumerus -94.1875 -40.8389 6.38399
rradius 11.3892
rwrist 61.1921
rhand -13.5147 -34.7598
rfingers 7.12502
rthumb 12.597 -64.36
lclavicle 1.16848e-014 2.38542e-015
lhumerus -28.7071 6.22152 82.2817
lradius 57.2368
lwrist 10.2725
lhand -21.9505 -20.1647
lfingers 7.12502
lthumb 4.45657 9.76842
rfemur -44.8472 -3.16377 25.5238
rtibia 40.5338
rfoot -14.2524 3.42256
rtoes -15.6817
lfemur -20.4034 1.51486 -17.9613
ltibia 67.7441
lfoot 12.1562 -5.33424
ltoes -7.18641
125
root -0.488314 16.224 -18.9985 16.9104 3.17558 -0.620956
lowerback -13.7006 -0.873369 5.00832
upperback -5.26525 -1.87813 2.63379
thorax 2.05371 -0.959742 -0.354481
lowerneck -4.48294 0.48041 0.0460513
upperneck 4.18658 0.785406 -2.89872
head 2.09565 0.314783 -0.899397
rclavicle -6.4605e-015 -1.03368e-014
rhumerus -90.9849 -42.2152 1.26358
rradius 11.486
rwrist 58.712
rhand -14.0599 -35.5241
rfingers 7.12502
rthumb 12.0713 -65.1559
lclavicle -6.4605e-015 -1.03368e-014
lhumerus -29.0114 6.00435 82.782
lradius 56.1098
lwrist 10.0406
lhand -21.8822 -20.1789
lfingers 7.12502
lthumb 4.52255 9.75284
rfemur -43.9889 -3.3288 25.6236
rtibia 40.4069
rfoot -15.0636 3.73683
rtoes -13.8627
lfemur -22.0958 1.98353 -18.1388
ltibia 69.3412
lfoot 9.73882 -5.23236
ltoes -5.18577
126
root -0.498202 16.2572 -18.7917 17.046 2.96614 -0.633935
lowerback -13.8569 -0.752909 4.77654
upperback -5.26696 -1.70221 2.6948
thorax 2.15317 -0.867606 -0.138005
lowerneck -4.99699 0.408068 0.164487
upperneck 4.84675 0.714863 -3.12892
head 2.40977 0.264288 -1.00085
rclavicle 2.33572e-014 -2.22639e-014
rhumerus -89.4153 -43.6021 -0.949982
rradius 11.4192
rwrist 58.6253
rhand -15.1911 -34.9592
rfingers 7.12502
rthumb 10.9805 -64.652
lclavicle 2.33572e-014 -2.22639e-014
lhumerus -29.4906 6.01287 83.1855
lradius 54.8664
lwrist 9.65831
lhand -21.7543 -20.2978
lfingers 7.12502
lthumb 4.64602 9.63126
rfemur -43.2072 -3.26728 25.6663
rtibia 40.3077
rfoot -15.848 3.74803
rtoes -13.3578
lfemur -24.0039 2.45509 -18.296
ltibia 70.7517
lfoot 7.75483 -5.06899
ltoes -5.53927
127
root -0.508618 16.2798 -18.5927 17.2114 2.8906 -0.408731
lowerback -13.9843 -0.726901 4.33911
upperback -5.31853 -1.61603 2.67792
thorax 2.18439 -0.820941 0.100751
lowerneck -5.11627 0.378777 0.14515
upperneck 5.208 0.691735 -3.18872
head 2.55242 0.245764 -1.02033
rclavicle 1.90709e-015 -1.43125e-014
rhumerus -88.5647 -45.1032 -1.98709
rradius 11.3097
rwrist 59.3114
rhand -15.8216 -34.4483
rfingers 7.12502
rthumb 10.3723 -64.1725
lclavicle 1.90709e-015 -1.43125e-014
lhumerus -30.057 5.94061 83.5295
lradius 53.5996
lwrist 9.43678
lhand -21.7591 -20.3267
lfingers 7.12502
lthumb 4.64139 9.60249
rfemur -42.461 -3.10844 25.3756
rtibia 40.2
rfoot -16.5557 3.42426
rtoes -13.3787
lfemur -25.8993 2.64866 -18.662
ltibia 71.9497
lfoot 6.07277 -4.70703
ltoes -7.44028
128
root -0.516041 16.3029 -18.3968 17.4079 2.69243 -0.197553
lowerback -14.1918 -0.634072 4.01646
upperback -5.43108 -1.45576 2.59888
thorax 2.18938 -0.739855 0.221738
lowerneck -4.64733 0.330152 0.0501644
upperneck 5.31569 0.630786 -3.16134
head 2.49927 0.217167 -0.996518
rclavicle 1.29955e-014 1.19271e-014
rhumerus -83.4899 -45.7758 -9.1166
rradius 11.4748
rwrist 55.4555
rhand -16.2275 -34.7745
rfingers 7.12502
rthumb 9.98064 -64.5179
lclavicle 1.29955e-014 1.19271e-014
lhumerus -30.8773 5.75665 83.7864
lradius 52.3411
lwrist 9.32266
lhand -21.5064 -20.404
lfingers 7.12502
lthumb 4.88539 9.5197
rfemur -41.7682 -2.95066 25.0903
rtibia 40.0699
rfoot -17.1863 3.26691
rtoes -12.9953
lfemur -27.722 2.81971 -19.0524
ltibia 72.9048
lfoot 5.05727 -4.18972
ltoes -6.65268
129
root -0.517871 16.3288 -18.198 17.6433 2.26831 -0.2831
lowerback -14.4652 -0.420171 4.03551
upperback -5.55057 -1.18644 2.56942
thorax 2.21525 -0.607029 0.220199
lowerneck -4.25024 0.333149 -0.00231543
upperneck 5.52064 0.642089 -3.1899
head 2.49421 0.221947 -0.996409
rclavicle -6.14058e-015 8.74653e-015
rhumerus -76.8162 -45.5126 -18.3576
rradius 11.7971
rwrist 50.2518
rhand -16.8377 -35.0939
rfingers 7.12502
rthumb 9.39197 -64.8647
lclavicle -6.14058e-015 8.74653e-015
lhumerus -31.7796 5.69163 83.9633
lradius 50.8778
lwrist 8.711
lhand -21.3284 -20.7757
lfingers 7.12502
lthumb 5.05722 9.14391
rfemur -41.087 -2.69096 25.1025
rtibia 39.8521
rfoot -17.8213 3.35151
rtoes -12.3819
lfemur -29.5079 3.24739 -19.2262
ltibia 73.6028
lfoot 2.65517 -3.2826
ltoes -10.0071
130
root -0.522348 16.3481 -17.9973 17.7648 1.83786 -0.431528
lowerback -14.7258 -0.216934 4.0634
upperback -5.49322 -0.941224 2.5674
thorax 2.42026 -0.481838 0.239179
lowerneck -4.28784 0.350112 -0.0280688
upperneck 5.77902 0.677484 -3.23898
head 2.58847 0.234261 -1.0084
rclavicle 1.83565e-015 1.43125e-014
rhumerus -71.054 -45.2539 -25.9687
rradius 12.0392
rwrist 46.5173
rhand -17.2777 -35.6204
rfingers 7.12502
rthumb 8.96735 -65.4099
lclavicle 1.83565e-015 1.43125e-014
lhumerus -32.4229 5.58319 84.1627
lradius 49.2886
lwrist 7.85999
lhand -21.6484 -20.8744
lfingers 7.12502
lthumb 4.74828 9.0524
rfemur -40.2208 -2.3919 25.1852
rtibia 39.5244
rfoot -18.4763 3.31224
rtoes -12.2568
lfemur -31.1342 3.80247 -19.3371
ltibia 74.0747
lfoot 2.54288 -3.46292
ltoes -1.27696
131
root -0.533334 16.3752 -17.7935 17.7097 1.56478 -0.373222
lowerback -14.79 -0.128897 3.84427
upperback -5.43607 -0.799337 2.51131
thorax 2.52142 -0.408111 0.326246
lowerneck -4.19884 0.366369 0.0141574
upperneck 5.99359 0.705591 -3.29788
head 2.64522 0.245679 -1.03505
rclavicle -2.62303e-014 2.38542e-014
rhumerus -65.5047 -44.4338 -33.2723
rradius 12.3567
rwrist 42.8521
rhand -17.6394 -35.8592
rfingers 7.12502
rthumb 8.61831 -65.6633
lclavicle -2.62303e-014 2.38542e-014
lhumerus -33.1469 5.34616 84.3721
lradius 47.9799
lwrist 7.80253
lhand -21.704 -19.9106
lfingers 7.12502
lthumb 4.69462 10.0174
rfemur -39.1066 -2.19081 25.0653
rtibia 39.1354
rfoot -19.0897 3.12136
rtoes -12.4868
lfemur -32.4572 4.19158 -19.612
ltibia 74.2578
lfoot 0.210868 -2.62911
ltoes -5.23323
132
root -0.544833 16.4103 -17.5917 17.6243 1.43869 -0.038507
lowerback -14.7285 -0.128956 3.34833
upperback -5.45639 -0.720983 2.37488
thorax 2.47527 -0.367031 0.475587
lowerneck -4.13728 0.354341 0.152278
upperneck 6.35192 0.699491 -3.43565
head 2.7565 0.237943 -1.10657
rclavicle 8.56638e-015 -8.74653e-015
rhumerus -60.7876 -43.4046 -39.4907
rradius 12.7737
rwrist 39.5748
rhand -18.0012 -35.4269
rfingers 7.12502
rthumb 8.26921 -65.2451
lclavicle 8.56638e-015 -8.74653e-015
lhumerus -33.8674 5.1322 84.5804
lradius 46.4847
lwrist 7.93365
lhand -21.5656 -18.9829
lfingers 7.12502
lthumb 4.82819 10.9421
rfemur -37.9756 -2.12108 24.6545
rtibia 38.7712
rfoot -19.66 3.03694
rtoes -11.8377
lfemur -33.6985 4.31944 -20.156
ltibia 74.1594
lfoot -1.64997 -1.99326
ltoes -7.35905
133
root -0.550238 16.4299 -17.396 17.5872 1.3619 0.249788
lowerback -14.7077 -0.100556 2.982
upperback -5.46223 -0.626238 2.23819
thorax 2.46316 -0.318103 0.554385
lowerneck -4.02213 0.334256 0.209424
upperneck 6.54582 0.678543 -3.50638
head 2.80103 0.225494 -1.14151
rclavicle 9.47823e-015 1.03368e-014
rhumerus -55.6012 -41.5199 -46.4381
rradius 13.463
rwrist 35.3809
rhand -18.079 -35.9612
rfingers 7.12502
rthumb 8.19406 -65.7823
lclavicle 9.47823e-015 1.03368e-014
lhumerus -34.5144 4.96093 84.7779
lradius 44.5647
lwrist 7.50354
lhand -21.6058 -19.4701
lfingers 7.12502
lthumb 4.78945 10.4558
rfemur -36.9191 -2.1655 24.301
rtibia 38.4891
rfoot -20.3105 3.15318
rtoes -10.478
lfemur -35.0575 4.3941 -20.6721
ltibia 73.9347
lfoot -0.448464 -2.83442
ltoes 4.92032
134
root -0.557005 16.4411 -17.2001 17.549 1.41427 0.475172
lowerback -14.6318 -0.0947233 2.70133
upperback -5.60436 -0.566442 2.11272
thorax 2.27611 -0.289252 0.591554
lowerneck -3.32776 0.352467 0.211258
upperneck 6.53287 0.693373 -3.46018
head 2.66676 0.241009 -1.1238
rclavicle -7.78987e-015 4.77083e-015
rhumerus -50.64 -37.9538 -53.7796
rradius 14.5477
rwrist 30.0033
rhand -18.2356 -36.3995
rfingers 7.12502
rthumb 8.043 -66.2264
lclavicle -7.78987e-015 4.77083e-015
lhumerus -35.5875 4.67651 84.9255
lradius 42.7355
lwrist 7.11617
lhand -21.4465 -20.3743
lfingers 7.12502
lthumb 4.94323 9.54802
rfemur -35.834 -2.33763 24.0704
rtibia 38.1638
rfoot -20.9879 3.24518
rtoes -9.72298
lfemur -36.3523 4.38893 -21.0833
ltibia 73.5027
lfoot -3.48183 -2.18238
ltoes -5.22637
135
root -0.571147 16.4541 -17.0141 17.7396 1.71132 0.811825
lowerback -14.5941 -0.269745 2.20576
upperback -5.61613 -0.72522 2.05953
thorax 2.24915 -0.363958 0.789668
lowerneck -3.85402 0.416257 0.118949
upperneck 7.0626 0.80285 -3.42103
head 2.94555 0.283559 -1.09683
rclavicle 5.49609e-015 1.27222e-014
rhumerus -46.172 -34.5115 -59.9421
rradius 15.5362
rwrist 25.126
rhand -18.8852 -35.5332
rfingers 7.12502
rthumb 7.41596 -65.3832
lclavicle 5.49609e-015 1.27222e-014
lhumerus -36.1616 4.59686 85.1096
lradius 40.9903
lwrist 7.11468
lhand -20.9785 -19.3894
lfingers 7.12502
lthumb 5.39515 10.5219
rfemur -35.1644 -2.68861 23.8484
rtibia 37.8928
rfoot -21.3975 3.13362
rtoes -9.32613
lfemur -37.9326 4.13895 -21.5291
ltibia 72.9052
lfoot -4.97692 -1.61887
ltoes -8.47218
